<mxfile host="app.diagrams.net" modified="2022-03-23T09:37:15.636Z" agent="5.0 (Windows NT 10.0; Win64; x64) AppleWebKit/537.36 (KHTML, like Gecko) Chrome/99.0.4844.82 Safari/537.36" etag="33sljkipoiZy6trLv50A" version="17.1.5" type="github">
  <diagram id="nrOpPS_fD3lO-uywk_wv" name="Page-1">
    <mxGraphModel dx="1000" dy="2303" grid="1" gridSize="10" guides="1" tooltips="1" connect="1" arrows="1" fold="1" page="1" pageScale="1" pageWidth="827" pageHeight="1169" math="0" shadow="0">
      <root>
        <mxCell id="0" />
        <mxCell id="1" parent="0" />
        <mxCell id="u3gB8eXx4AxrdxUE1i_C-2" value="" style="rounded=1;whiteSpace=wrap;html=1;" vertex="1" parent="1">
          <mxGeometry x="330" y="-1090" width="120" height="60" as="geometry" />
        </mxCell>
        <mxCell id="u3gB8eXx4AxrdxUE1i_C-3" value="" style="endArrow=classic;html=1;rounded=0;" edge="1" parent="1">
          <mxGeometry width="50" height="50" relative="1" as="geometry">
            <mxPoint x="389.29" y="-1030" as="sourcePoint" />
            <mxPoint x="389.29" y="-940" as="targetPoint" />
          </mxGeometry>
        </mxCell>
        <mxCell id="u3gB8eXx4AxrdxUE1i_C-4" value="" style="shape=parallelogram;perimeter=parallelogramPerimeter;whiteSpace=wrap;html=1;fixedSize=1;" vertex="1" parent="1">
          <mxGeometry x="330" y="-940" width="120" height="60" as="geometry" />
        </mxCell>
      </root>
    </mxGraphModel>
  </diagram>
</mxfile>
